<svg xmlns="http://www.w3.org/2000/svg" width="77.939" height="81.728" viewBox="0 0 77.939 81.728"><g id="&#x421;&#x433;&#x440;&#x443;&#x43F;&#x43F;&#x438;&#x440;&#x43E;&#x432;&#x430;&#x442;&#x44C;_11381" data-name="&#x421;&#x433;&#x440;&#x443;&#x43F;&#x43F;&#x438;&#x440;&#x43E;&#x432;&#x430;&#x442;&#x44C; 11381" transform="translate(0 0)"><path id="&#x41A;&#x43E;&#x43D;&#x442;&#x443;&#x440;_5094" data-name="&#x41A;&#x43E;&#x43D;&#x442;&#x443;&#x440; 5094" d="M3957.6,113.216c15.978,2.334,28.884,13.378,33.04,27.8h5.523l3.081,6.474h-7.365c.115,1.168.176,2.351.176,3.548q0,1.35-.1,2.677h4.209l3.081,6.474h-8.364c-3.076,11.777-11.957,21.412-23.631,26.082v4.451a1.09,1.09,0,0,1-1.088,1.088h-6.772a1.09,1.09,0,0,1-1.088-1.088v-1.969q-1.286.209-2.6.342l-.485,1.9a1.075,1.075,0,0,1-1.053.818h-6.136a1.077,1.077,0,0,1-1.054-.819l-.494-1.934q-1.3-.144-2.578-.364v2.029a1.09,1.09,0,0,1-1.088,1.088h-6.772a1.09,1.09,0,0,1-1.087-1.088v-4.6a41.3,41.3,0,0,1-9.814-5.712l.051-8.651a34.063,34.063,0,0,0,9.763,7.1V163.931a1.09,1.09,0,0,1,1.087-1.088h10.919a1.077,1.077,0,0,1,1.054.819l3.107,12.176,3.116-12.177a1.077,1.077,0,0,1,1.054-.818h10.869a1.09,1.09,0,0,1,1.088,1.088v14.421a32.652,32.652,0,0,0,15.834-18.164h-48.326l-3.08-6.474h52.852a30.531,30.531,0,0,0,.182-3.324c0-.978-.049-1.945-.141-2.9H3928.9l-3.08-6.474h57.4c-3.364-10.336-12.145-18.45-23.235-21.426l6.741,17.987a1.088,1.088,0,0,1-1.019,1.469h-8.668a1.074,1.074,0,0,1-1.041-.772l-1.107-3.643h-7.767l-1.112,3.645a1.074,1.074,0,0,1-1.04.771h-8.45a1.088,1.088,0,0,1-1.018-1.471l6.882-18.282a34.492,34.492,0,0,0-17.793,10.366L3921.3,125.1a41.528,41.528,0,0,1,23.357-11.836l.932-2.474a1.069,1.069,0,0,1,1.018-.7h9.061a1.071,1.071,0,0,1,1.019.706l.91,2.428Zm8.56,73.473V163.931h-10.869l-4.172,16.3-4.159-16.3h-10.919v26.79h6.772V170.3l3.936,15.418.881,3.451.4,1.554h6.136l.945-3.7,1.3-5.067,2.984-11.661v20.423h6.772v-4.033Zm-9.036-71.642-.747-1.993-.707-1.884h-9.061l-10.083,26.79h8.45l1.347-4.415h9.379l1.341,4.415h8.668Zm-3.174,12.7-2.85-9.381-.075-.247-2.937,9.628Zm4.35,53.858v-2.664l-.72,2.812Q3957.939,181.68,3958.3,181.6Zm-13.639.337-.761-2.981v2.848Q3944.277,181.876,3944.659,181.939Zm7.821-55.282-1.459-4.805-1.466,4.805Z" transform="translate(-3921.301 -110.082)" fill="#194687" fill-rule="evenodd"></path></g></svg>