<svg xmlns="http://www.w3.org/2000/svg" width="652.716" height="349.484" viewBox="0 0 652.716 349.484"><g id="&#x421;&#x433;&#x440;&#x443;&#x43F;&#x43F;&#x438;&#x440;&#x43E;&#x432;&#x430;&#x442;&#x44C;_11521" data-name="&#x421;&#x433;&#x440;&#x443;&#x43F;&#x43F;&#x438;&#x440;&#x43E;&#x432;&#x430;&#x442;&#x44C; 11521" transform="translate(-9283 -2105)"><text id="&#x424;&#x41E;&#x41D;&#x414;_&#x421;&#x41E;&#x414;&#x415;&#x419;&#x421;&#x422;&#x412;&#x418;&#x42F;" data-name="&#x424;&#x41E;&#x41D;&#x414; &#x421;&#x41E;&#x414;&#x415;&#x419;&#x421;&#x422;&#x412;&#x418;&#x42F;" transform="translate(9283 2164)" font-size="58" font-family="IBMPlexSans-Bold, IBM Plex Sans" font-weight="700"><tspan x="0" y="0">ФОНД СОДЕЙСТВИЯ</tspan></text><text id="&#x418;&#x41D;&#x41D;&#x41E;&#x412;&#x410;&#x426;&#x418;&#x42F;&#x41C;&#x418;" transform="translate(9283 2251.908)" font-size="74" font-family="IBMPlexSans-Bold, IBM Plex Sans" font-weight="700"><tspan x="0" y="0">ИННОВАЦИЯМИ</tspan></text><g id="&#x421;&#x433;&#x440;&#x443;&#x43F;&#x43F;&#x438;&#x440;&#x43E;&#x432;&#x430;&#x442;&#x44C;_11248" data-name="&#x421;&#x433;&#x440;&#x443;&#x43F;&#x43F;&#x438;&#x440;&#x43E;&#x432;&#x430;&#x442;&#x44C; 11248" transform="translate(9284.415 2304.104)"><path id="&#x41A;&#x43E;&#x43D;&#x442;&#x443;&#x440;_5057" data-name="&#x41A;&#x43E;&#x43D;&#x442;&#x443;&#x440; 5057" d="M9317.91,4954.745h64.023s84.951,107.729,242.543,117.578,344.734-114.5,344.734-114.5-66.5,58.886-144.049,100.917c-59.863,32.442-119.814,51.941-200.686,44.979-74.178-6.386-141.437-28.194-191.449-56.02C9358.021,5005.972,9317.91,4954.745,9317.91,4954.745Z" transform="translate(-9317.91 -4954.745)" fill="#ea2227"></path><path id="&#x41A;&#x43E;&#x43D;&#x442;&#x443;&#x440;_5058" data-name="&#x41A;&#x43E;&#x43D;&#x442;&#x443;&#x440; 5058" d="M9317.91,4954.745h57.5s76.3,89.05,217.844,97.19,319.26-92.307,319.26-92.307-69.357,46.335-139.014,81.079c-53.764,26.817-107.611,42.935-180.246,37.179-66.623-5.278-127.031-23.3-171.953-46.3C9353.938,4997.089,9317.91,4954.745,9317.91,4954.745Z" transform="translate(-9263.679 -4954.745)" fill="#25a8e0"></path><path id="&#x41A;&#x43E;&#x43D;&#x442;&#x443;&#x440;_5059" data-name="&#x41A;&#x43E;&#x43D;&#x442;&#x443;&#x440; 5059" d="M9316.935,4954.745h50.727s65.243,76.144,186.27,83.105,294.536-75.759,294.536-75.759-80.851,36.45-140.412,66.157c-45.974,22.93-92.016,36.713-154.124,31.791-56.966-4.513-108.622-19.928-147.029-39.594C9349.3,4990.952,9316.935,4954.745,9316.935,4954.745Z" transform="translate(-9205.171 -4954.745)" fill="#fff"></path></g></g></svg>