<svg xmlns="http://www.w3.org/2000/svg" width="1920" height="1076" viewBox="0 0 1920 1076"><g id="&#x421;&#x433;&#x440;&#x443;&#x43F;&#x43F;&#x438;&#x440;&#x43E;&#x432;&#x430;&#x442;&#x44C;_11520" data-name="&#x421;&#x433;&#x440;&#x443;&#x43F;&#x43F;&#x438;&#x440;&#x43E;&#x432;&#x430;&#x442;&#x44C; 11520" transform="translate(-9838 -8386)"><rect id="structure-technology-skyline-night-steam-building-848593-pxhere.com" width="1920" height="1076" transform="translate(9838 8386)" fill="#fff"></rect><g id="&#x421;&#x433;&#x440;&#x443;&#x43F;&#x43F;&#x438;&#x440;&#x43E;&#x432;&#x430;&#x442;&#x44C;_11381" data-name="&#x421;&#x433;&#x440;&#x443;&#x43F;&#x43F;&#x438;&#x440;&#x43E;&#x432;&#x430;&#x442;&#x44C; 11381" transform="translate(10496.999 8419.272)"><path id="&#x41A;&#x43E;&#x43D;&#x442;&#x443;&#x440;_5094" data-name="&#x41A;&#x43E;&#x43D;&#x442;&#x443;&#x440; 5094" d="M4201.3,134.261c123.26,18,222.825,103.2,254.885,214.463H4498.8l23.764,49.942h-56.813c.885,9.013,1.354,18.14,1.354,27.37q0,10.414-.779,20.649H4498.8l23.764,49.94h-64.525c-23.731,90.855-92.242,165.181-182.3,201.21v34.339a8.407,8.407,0,0,1-8.394,8.39H4215.1a8.409,8.409,0,0,1-8.391-8.39V716.987q-9.921,1.615-20.051,2.641l-3.744,14.625a8.3,8.3,0,0,1-8.125,6.313h-47.338a8.309,8.309,0,0,1-8.132-6.318l-3.808-14.92q-10.035-1.108-19.89-2.8v15.651a8.406,8.406,0,0,1-8.391,8.39h-52.242a8.406,8.406,0,0,1-8.389-8.39V696.7a318.58,318.58,0,0,1-75.709-44.066l.392-66.738a262.773,262.773,0,0,0,75.318,54.779V525.5a8.406,8.406,0,0,1,8.389-8.391h84.238a8.311,8.311,0,0,1,8.132,6.318l23.968,93.934,24.039-93.942a8.307,8.307,0,0,1,8.13-6.31h83.849a8.407,8.407,0,0,1,8.394,8.391V636.752c57.5-30.263,101.673-80.207,122.149-140.126H4025.076l-23.762-49.94h407.723a235.531,235.531,0,0,0,1.405-25.643c0-7.543-.381-15.006-1.089-22.377H3979.936l-23.762-49.942h442.806c-25.951-79.738-93.689-142.33-179.244-165.287l52,138.759a8.391,8.391,0,0,1-7.858,11.336h-66.869a8.283,8.283,0,0,1-8.026-5.954l-8.54-28.107h-59.916l-8.58,28.117a8.283,8.283,0,0,1-8.024,5.944h-65.185a8.391,8.391,0,0,1-7.854-11.349l53.089-141.037c-54.393,12.622-102.111,41.122-137.268,79.97l-25.406-35.2c46.542-47.395,109.392-80.452,180.189-91.312l7.188-19.086a8.248,8.248,0,0,1,7.849-5.435h69.9a8.26,8.26,0,0,1,7.856,5.447l7.021,18.733Zm66.035,566.8V525.506h-83.849l-32.185,125.754-32.084-125.754h-84.238v206.67h52.242V574.625l30.363,118.94,6.8,26.624,3.058,11.987h47.338l7.292-28.506,10-39.09,23.019-89.955v157.55h52.242V701.062Zm-69.7-552.679-5.76-15.374-5.45-14.537h-69.9l-77.788,206.667h65.185l10.39-34.059h72.353l10.343,34.059h66.869Zm-24.488,97.959-21.985-72.369-.576-1.909-22.662,74.278Zm33.559,415.482V641.272l-5.552,21.694Q4203.942,662.424,4206.706,661.826Zm-105.216,2.6-5.873-23v21.969Q4098.544,663.939,4101.49,664.423Zm60.336-426.472-11.259-37.07-11.308,37.07Z" transform="translate(-3921.3 -110.082)" fill="#194687" fill-rule="evenodd"></path></g></g></svg>