<svg xmlns="http://www.w3.org/2000/svg" width="545" height="181.672" viewBox="0 0 545 181.672"><g id="EH_Logo-d9672165" transform="translate(30.08 39.69)"><path id="&#x41A;&#x43E;&#x43D;&#x442;&#x443;&#x440;_5019" data-name="&#x41A;&#x43E;&#x43D;&#x442;&#x443;&#x440; 5019" d="M-30.08-39.69h545V141.982h-545Z" fill="none"></path><path id="&#x41A;&#x43E;&#x43D;&#x442;&#x443;&#x440;_5020" data-name="&#x41A;&#x43E;&#x43D;&#x442;&#x443;&#x440; 5020" d="M.61,11.076H19.083v4.182H5.433V26.249H16.472v4.134H5.433V42.992h14.42v4.15H.61Zm25.058,9.837h3.509l.673,3.2a11.456,11.456,0,0,1,8.011-3.925c3.765,0,6.329,1.923,6.329,6.409v20.54h-4.5V28.076c0-2.98-.849-3.813-3.2-3.813a10.671,10.671,0,0,0-6.409,3.2V47.142H25.668Zm24.642,13.3c0-9.837,2.884-13.971,9-13.971a10.206,10.206,0,0,1,6.953,3.2V9.25h4.5V47.142H67.277l-.737-2.724a9.613,9.613,0,0,1-7.274,3.4c-5.031,0-8.956-2.82-8.956-13.6Zm16.022,6.905V26.938A8.844,8.844,0,0,0,60.516,24.1c-3.717,0-5.335,1.362-5.335,9.789S56.542,43.937,60.1,43.937a8.508,8.508,0,0,0,6.168-2.82ZM78.3,20.914h3.509l.721,3.717a9.613,9.613,0,0,1,7.386-4.182,2.724,2.724,0,0,1,.945.144L90.332,25.4a5.031,5.031,0,0,0-1.6-.208,8.123,8.123,0,0,0-5.96,2.676V47.094H78.3ZM93.5,34c0-9.95,4.086-13.763,10.27-13.763s9.773,3.557,9.773,13.026v1.778H98.327c.1,7.178,1.6,8.956,6.008,8.956a9.116,9.116,0,0,0,6.184-2.467l2.467,3.2a12.449,12.449,0,0,1-8.748,3.028C97.366,47.815,93.5,43.841,93.5,34Zm4.807-2.355h10.414c0-6.024-1.362-7.851-5.127-7.851-3.028,0-4.855,1.57-5.223,7.851Zm18.746,13.346,1.891-3.349a12.161,12.161,0,0,0,7.018,2.451c3.557,0,4.646-1.41,4.646-3.877,0-2.932-1.362-3.509-5.544-4.662-3.669-1.073-6.7-2.964-6.7-8.155,0-3.813,2.467-7.162,8.219-7.162a14.067,14.067,0,0,1,7.274,1.714l-1.6,3.557a11.087,11.087,0,0,0-5.544-1.458c-2.836,0-4.134.993-4.134,3.2s1.089,3.076,4.71,4.07c4.021,1.106,7.69,2.676,7.69,8.588,0,5.447-3.092,7.851-9.261,7.851a14.9,14.9,0,0,1-8.668-2.772Zm21.405,0,1.891-3.349A12.161,12.161,0,0,0,147.37,44.1c3.557,0,4.662-1.41,4.662-3.877,0-2.932-1.362-3.509-5.56-4.662-3.653-.993-6.7-2.916-6.7-8.107,0-3.813,2.467-7.162,8.219-7.162A14.067,14.067,0,0,1,155.269,22l-1.6,3.557a11.087,11.087,0,0,0-5.544-1.458c-2.836,0-4.134.993-4.134,3.2s1.089,3.076,4.71,4.07c4.021,1.106,7.691,2.676,7.691,8.588,0,5.447-3.092,7.851-9.261,7.851A14.9,14.9,0,0,1,138.462,44.995ZM172.8,33.8h-8.411V29.87H172.8V20.593h4.246V29.87h8.444V33.8h-8.379v9.261h-4.246Zm22.927-22.719h4.807V25.833h12.978V11.076h4.807V47.142h-4.807V30.078H200.531V47.142h-4.807ZM224.5,39.643c0-5.96,3.509-8.732,12.1-8.732h2.147V28.877c0-2.932-.368-4.71-3.781-4.71a16.246,16.246,0,0,0-7.626,2.4l-1.794-3.461a18.329,18.329,0,0,1,9.837-2.868c5.127,0,7.8,2.291,7.8,7.9v19h-3.509l-.737-2.628a8.972,8.972,0,0,1-6.6,3.3c-4.951,0-7.835-2.772-7.835-8.171Zm14.243,1.474v-6.97h-1.6c-6.6,0-7.851,1.682-7.851,5.5,0,3.461,1.089,4.614,3.653,4.614A8.011,8.011,0,0,0,238.743,41.117Zm11.376,0v-20.2h4.5V39.708c0,3.092,1.041,4.134,3.4,4.134a10.366,10.366,0,0,0,6.281-3.2V20.914h4.5V47.142h-3.493l-.689-3.2a10.959,10.959,0,0,1-7.8,3.925,6.184,6.184,0,0,1-6.7-6.745Zm23.969,3.877,1.891-3.349a12.161,12.161,0,0,0,7.018,2.4c3.557,0,4.646-1.41,4.646-3.877,0-2.932-1.362-3.509-5.544-4.662-3.669-.993-6.7-2.916-6.7-8.107,0-3.813,2.467-7.162,8.219-7.162a14.067,14.067,0,0,1,7.274,1.714l-1.6,3.557a11.087,11.087,0,0,0-5.544-1.458c-2.836,0-4.134.993-4.134,3.2s1.089,3.076,4.71,4.07c4.021,1.106,7.691,2.676,7.691,8.588,0,5.447-3.092,7.851-9.261,7.851a14.9,14.9,0,0,1-8.668-2.772ZM296.39,34c0-9.95,4.086-13.763,10.254-13.763s9.789,3.557,9.789,13.026v1.778H301.212c.1,7.178,1.6,8.956,6.008,8.956a9.116,9.116,0,0,0,6.184-2.467l2.451,3.2a12.4,12.4,0,0,1-8.732,3.028C300.267,47.815,296.39,43.841,296.39,34Zm4.807-2.355h10.414c0-6.024-1.362-7.851-5.127-7.851-2.98,0-4.855,1.57-5.223,7.851Zm20.973-10.735h3.509l.737,3.717a9.613,9.613,0,0,1,7.386-4.182,2.628,2.628,0,0,1,.929.144l-.513,4.807a5.1,5.1,0,0,0-1.6-.208,8.155,8.155,0,0,0-5.976,2.676V47.094h-4.5Z" transform="translate(18.481 29.471)" fill="#231f20"></path><path id="&#x41A;&#x43E;&#x43D;&#x442;&#x443;&#x440;_5021" data-name="&#x41A;&#x43E;&#x43D;&#x442;&#x443;&#x440; 5021" d="M311.719,1.072a6.52,6.52,0,0,0-1.6-.192H236.352a6.121,6.121,0,0,0-5.912,4.535L219.978,44.46a6.152,6.152,0,0,0,4.342,7.514,6.633,6.633,0,0,0,1.6.208h73.7a6.136,6.136,0,0,0,5.912-4.55L316,8.619a6.136,6.136,0,0,0-4.278-7.546Z" transform="translate(150.457 24.431)" fill="#00aeef" fill-rule="evenodd"></path><path id="&#x41A;&#x43E;&#x43D;&#x442;&#x443;&#x440;_5022" data-name="&#x41A;&#x43E;&#x43D;&#x442;&#x443;&#x440; 5022" d="M260.41,45.431H230.578A1.234,1.234,0,0,1,229.36,44.2V5.184a1.234,1.234,0,0,1,1.218-1.234H260.41L257.4,15.165H242.642v3.877h10.174L249.8,30.258H242.69v3.877h17.768Z" transform="translate(156.231 26.279)" fill="#fff" fill-rule="evenodd"></path><path id="&#x41A;&#x43E;&#x43D;&#x442;&#x443;&#x440;_5023" data-name="&#x41A;&#x43E;&#x43D;&#x442;&#x443;&#x440; 5023" d="M286.139,44.167a1.234,1.234,0,0,1-1.218,1.234H272.873V30.276h-4.086V45.4H255.505V30.276H244.29L247.3,19.061h8.139V4h13.282V19.125h4.086V4h12.048a1.234,1.234,0,0,1,1.218,1.234Z" transform="translate(165.222 26.31)" fill="#fff" fill-rule="evenodd"></path></g></svg>