<svg xmlns="http://www.w3.org/2000/svg" xmlns:xlink="http://www.w3.org/1999/xlink" width="507.348" height="212.642" viewBox="0 0 507.348 212.642"><defs><clipPath id="clip-path"><path id="&#x41A;&#x43E;&#x43D;&#x442;&#x443;&#x440;_4998" data-name="&#x41A;&#x43E;&#x43D;&#x442;&#x443;&#x440; 4998" d="M116.718,17.87a1.275,1.275,0,0,0-.07.835c.435,1.116,31.876,39.66,31.876,39.66L164.4,64.971c5.1,2.192,6.122,1.617,6.467,1.226l.076-.131c.309-.586-.567-1.829-1.837-3.414l-41.7-51.062c-3.885-4.657-3.547-5.585-3.355-6.056Z" transform="translate(-116.611 -5.533)"></path></clipPath><linearGradient id="linear-gradient" x1="-5.93" y1="9.064" x2="-5.891" y2="9.064" gradientUnits="objectBoundingBox"><stop offset="0" stop-color="#949698"></stop><stop offset="0.103" stop-color="#9fa1a3"></stop><stop offset="0.284" stop-color="#bcbebf"></stop><stop offset="0.5" stop-color="#e7e8e9"></stop><stop offset="0.6" stop-color="#dddedf"></stop><stop offset="0.772" stop-color="#c2c3c5"></stop><stop offset="0.993" stop-color="#96989a"></stop><stop offset="1" stop-color="#949698"></stop></linearGradient><clipPath id="clip-path-2"><path id="&#x41A;&#x43E;&#x43D;&#x442;&#x443;&#x440;_5000" data-name="&#x41A;&#x43E;&#x43D;&#x442;&#x443;&#x440; 5000" d="M106.877,28.183l-.04.078c-.338.583.471,1.919,1.748,3.5l3.036,3.727,25.866,10.749-8.314-10.179-15.878-6.606c-2.9-1.251-4.477-1.6-5.357-1.6h-.021a1.342,1.342,0,0,0-1.04.332" transform="translate(-106.76 -27.851)"></path></clipPath><linearGradient id="linear-gradient-2" x1="-14.508" y1="21.037" x2="-14.42" y2="21.037" gradientUnits="objectBoundingBox"><stop offset="0" stop-color="#949698"></stop><stop offset="0.206" stop-color="#9fa1a3"></stop><stop offset="0.567" stop-color="#bcbebf"></stop><stop offset="1" stop-color="#e7e8e9"></stop></linearGradient><clipPath id="clip-path-3"><path id="&#x41A;&#x43E;&#x43D;&#x442;&#x443;&#x440;_5002" data-name="&#x41A;&#x43E;&#x43D;&#x442;&#x443;&#x440; 5002" d="M114.272,22.222a1.243,1.243,0,0,0-.224.233L106.784,34.72a.7.7,0,0,1,.066-.082c.37-.383,1.459-.871,6.416,1.268l57.4,23.867c.867.313,2.856.941,3.678.478a1.734,1.734,0,0,0,.349-.408l7.154-12.09a.344.344,0,0,0-.036.04c-.342.391-1.368.966-6.467-1.226L117.91,22.689a9.677,9.677,0,0,0-2.831-.632,1.65,1.65,0,0,0-.808.165" transform="translate(-106.784 -22.057)"></path></clipPath><linearGradient id="linear-gradient-3" x1="-5.81" y1="9.261" x2="-5.772" y2="9.261" gradientUnits="objectBoundingBox"><stop offset="0" stop-color="#004786"></stop><stop offset="0.202" stop-color="#004786"></stop><stop offset="0.275" stop-color="#175490"></stop><stop offset="0.425" stop-color="#5076a9"></stop><stop offset="0.506" stop-color="#7289b7"></stop><stop offset="0.56" stop-color="#5b7cad"></stop><stop offset="0.725" stop-color="#1a5691"></stop><stop offset="0.803" stop-color="#004786"></stop><stop offset="1" stop-color="#004786"></stop></linearGradient><clipPath id="clip-path-4"><path id="&#x41A;&#x43E;&#x43D;&#x442;&#x443;&#x440;_5004" data-name="&#x41A;&#x43E;&#x43D;&#x442;&#x443;&#x440; 5004" d="M101.947,36.507l-.036.066c-.334.581.476,1.919,1.752,3.494l3.036,3.727,25.224,10.494.171.066.478.194-8.318-10.174-15.882-6.606c-2.9-1.254-4.473-1.609-5.353-1.609a1.353,1.353,0,0,0-1.072.349" transform="translate(-101.835 -36.158)"></path></clipPath><linearGradient id="linear-gradient-4" x1="-14.285" y1="20.62" x2="-14.196" y2="20.62" xlink:href="#linear-gradient-2"></linearGradient><clipPath id="clip-path-5"><path id="&#x41A;&#x43E;&#x43D;&#x442;&#x443;&#x440;_5006" data-name="&#x41A;&#x43E;&#x43D;&#x442;&#x443;&#x440; 5006" d="M97.024,44.813l-.036.066c-.338.581.48,1.919,1.752,3.494l41.687,51.073c3.718,4.45,3.763,5.355,3.446,5.913l7.247-12.189a1.142,1.142,0,0,0,.106-.949,11.784,11.784,0,0,0-1.805-2.685L119.326,52.677,103.444,46.07c-2.892-1.254-4.473-1.6-5.353-1.6a1.339,1.339,0,0,0-1.068.347" transform="translate(-96.912 -44.466)"></path></clipPath><linearGradient id="linear-gradient-5" x1="-5.578" y1="8.34" x2="-5.539" y2="8.34" xlink:href="#linear-gradient"></linearGradient><clipPath id="clip-path-6"><path id="&#x41A;&#x43E;&#x43D;&#x442;&#x443;&#x440;_5008" data-name="&#x41A;&#x43E;&#x43D;&#x442;&#x443;&#x440; 5008" d="M104.395,38.837a.441.441,0,0,0-.085.087.93.93,0,0,0-.135.146s-7.23,12.225-7.211,12.2c.364-.387,1.427-.9,6.42,1.258l57.394,23.862c.871.313,2.862.941,3.687.476a1.734,1.734,0,0,0,.349-.408l7.154-12.088a.091.091,0,0,1-.032.038c-.338.387-1.357.977-6.471-1.226L112.119,41,108.033,39.3a9.579,9.579,0,0,0-2.822-.63,1.641,1.641,0,0,0-.816.163" transform="translate(-96.964 -38.674)"></path></clipPath><linearGradient id="linear-gradient-6" x1="-5.621" y1="8.915" x2="-5.583" y2="8.915" xlink:href="#linear-gradient-3"></linearGradient><clipPath id="clip-path-7"><path id="&#x41A;&#x43E;&#x43D;&#x442;&#x443;&#x440;_5010" data-name="&#x41A;&#x43E;&#x43D;&#x442;&#x443;&#x440; 5010" d="M122.85,34.015,131.164,44.2l15.88,6.606c5.107,2.2,6.122,1.613,6.464,1.226l.078-.127c.313-.592-.564-1.833-1.837-3.414l-3.027-3.718Z" transform="translate(-122.85 -34.015)"></path></clipPath><linearGradient id="linear-gradient-7" x1="-15.002" y1="20.464" x2="-14.914" y2="20.464" gradientUnits="objectBoundingBox"><stop offset="0" stop-color="#e7e8e9"></stop><stop offset="0.201" stop-color="#dddedf"></stop><stop offset="0.544" stop-color="#c2c3c5"></stop><stop offset="0.985" stop-color="#96989a"></stop><stop offset="1" stop-color="#949698"></stop></linearGradient><clipPath id="clip-path-8"><path id="&#x41A;&#x43E;&#x43D;&#x442;&#x443;&#x440;_5012" data-name="&#x41A;&#x43E;&#x43D;&#x442;&#x443;&#x440; 5012" d="M109.344,30.528a1.6,1.6,0,0,0-.216.235l-7.268,12.261c.017-.021.038-.044.057-.066.366-.387,1.423-.9,6.42,1.258l57.4,23.858c.871.317,2.86.941,3.676.478a1.594,1.594,0,0,0,.355-.408l7.158-12.09a.134.134,0,0,1-.042.042c-.342.387-1.357.968-6.464-1.226l-15.88-6.606L117.073,32.686l-4.086-1.7a9.753,9.753,0,0,0-2.826-.626,1.7,1.7,0,0,0-.816.163" transform="translate(-101.861 -30.365)"></path></clipPath><linearGradient id="linear-gradient-8" x1="-5.715" y1="9.087" x2="-5.676" y2="9.087" xlink:href="#linear-gradient-3"></linearGradient><clipPath id="clip-path-9"><path id="&#x41A;&#x43E;&#x43D;&#x442;&#x443;&#x440;_5014" data-name="&#x41A;&#x43E;&#x43D;&#x442;&#x443;&#x440; 5014" d="M113,50.631l19.916,24.384c3.723,4.463,3.759,5.355,3.446,5.917l7.283-12.25a1.251,1.251,0,0,0,.061-.9c-.249-.662-4.833-6.386-4.833-6.386Z" transform="translate(-113.001 -50.631)"></path></clipPath><linearGradient id="linear-gradient-9" x1="-12.027" y1="15.821" x2="-11.954" y2="15.821" xlink:href="#linear-gradient-7"></linearGradient><clipPath id="clip-path-10"><path id="&#x41A;&#x43E;&#x43D;&#x442;&#x443;&#x440;_5016" data-name="&#x41A;&#x43E;&#x43D;&#x442;&#x443;&#x440; 5016" d="M117.924,42.322,126.242,52.5l15.878,6.606c5.114,2.2,6.13,1.613,6.471,1.226l.072-.123c.309-.594-.562-1.833-1.837-3.414L143.8,53.082Z" transform="translate(-117.924 -42.322)"></path></clipPath><linearGradient id="linear-gradient-10" x1="-14.783" y1="20.054" x2="-14.695" y2="20.054" gradientUnits="objectBoundingBox"><stop offset="0" stop-color="#e7e8e9"></stop><stop offset="0.045" stop-color="#e7e8e9"></stop><stop offset="0.237" stop-color="#dddedf"></stop><stop offset="0.564" stop-color="#c2c3c5"></stop><stop offset="0.986" stop-color="#96989a"></stop><stop offset="1" stop-color="#949698"></stop></linearGradient><clipPath id="clip-path-11"><path id="&#x41A;&#x43E;&#x43D;&#x442;&#x443;&#x440;_5018" data-name="&#x41A;&#x43E;&#x43D;&#x442;&#x443;&#x440; 5018" d="M111.8,26.178a1.207,1.207,0,0,0-.074.818,10.116,10.116,0,0,0,1.78,2.812l3.036,3.727,25.871,10.749L122.49,19.9c-3.894-4.657-3.556-5.581-3.363-6.056Z" transform="translate(-111.687 -13.839)"></path></clipPath><linearGradient id="linear-gradient-11" x1="-11.996" y1="17.216" x2="-11.923" y2="17.216" xlink:href="#linear-gradient-2"></linearGradient></defs><g id="Emerson_Electric_Company_1_" data-name="Emerson_Electric_Company (1)" transform="translate(-5 -5.533)"><g id="&#x421;&#x433;&#x440;&#x443;&#x43F;&#x43F;&#x438;&#x440;&#x43E;&#x432;&#x430;&#x442;&#x44C;_11223" data-name="&#x421;&#x433;&#x440;&#x443;&#x43F;&#x43F;&#x438;&#x440;&#x43E;&#x432;&#x430;&#x442;&#x44C; 11223" transform="translate(5 156.955)"><path id="&#x41A;&#x43E;&#x43D;&#x442;&#x443;&#x440;_4988" data-name="&#x41A;&#x43E;&#x43D;&#x442;&#x443;&#x440; 4988" d="M124.627,103.136V86.791h5.128c7.223,0,15.132.256,15.132,7.663,0,7.832-7.629,8.682-16.647,8.682h-3.613m0,8.942h6.661l20,24.084h20.949L147.8,110.04c5.137-1.624,15.825-4.773,15.825-15.76,0-16-21.655-16.432-32.343-16.432H108.8c-2.363,0-2.921.256-2.921,1.8v56.548s.558-.013,2.921-.013h12.908l2.911.013V112.078Z" transform="translate(107.379 -76.399)" fill="#004685"></path><path id="&#x41A;&#x43E;&#x43D;&#x442;&#x443;&#x440;_4989" data-name="&#x41A;&#x43E;&#x43D;&#x442;&#x443;&#x440; 4989" d="M201.418,129.444c-10.409,0-14.846-8.348-14.846-21.63s4.439-21.706,14.846-21.706,14.855,8.34,14.855,21.706c0,13.28-4.444,21.63-14.855,21.63m34.567-21.632c0-20.6-13.189-30.648-34.567-30.648s-34.563,9.963-34.563,30.648c0,20.611,13.043,30.57,34.563,30.57s34.567-9.959,34.567-30.57" transform="translate(175.298 -77.162)" fill="#004685"></path><path id="&#x41A;&#x43E;&#x43D;&#x442;&#x443;&#x440;_4990" data-name="&#x41A;&#x43E;&#x43D;&#x442;&#x443;&#x440; 4990" d="M95.742,110.291H122v-9.2H95.742V87.048h29.3l3.985-9.2H79.68c-1.928.013-2.562.252-2.676,1.338v56.973l51.358.017,0-1.793v-5.615l.008-1.8H95.742V110.291" transform="translate(75.209 -76.4)" fill="#004685"></path><path id="&#x41A;&#x43E;&#x43D;&#x442;&#x443;&#x440;_4991" data-name="&#x41A;&#x43E;&#x43D;&#x442;&#x443;&#x440; 4991" d="M265.344,77.855H255.205l-2.917-.013s.353,35.227.353,37.943L221.333,78.965c-.829-.936-1.108-1.11-3.19-1.11H206.76l-.323,0c-1.812.013-2.452.252-2.587,1.256V136.2s.554-.013,2.911-.013H216.9c2.357,0,2.917.013,2.917.013V103.742c0-3.919-.12-6.507-.12-7.621,0,0,32,37.44,33.3,38.865a3.94,3.94,0,0,0,3.19,1.2h9.162l2.909.034V77.842l-2.907.013" transform="translate(216.508 -76.407)" fill="#004685"></path><path id="&#x41A;&#x43E;&#x43D;&#x442;&#x443;&#x440;_4992" data-name="&#x41A;&#x43E;&#x43D;&#x442;&#x443;&#x440; 4992" d="M23.742,110.291H49.991v-9.2H23.742V87.048H53.035l3.987-9.2H7.7c-2.089.015-2.657.3-2.7,1.647v56.669l51.358.017v-7.407l.017-1.8H23.742V110.291" transform="translate(-5 -76.4)" fill="#004685"></path><path id="&#x41A;&#x43E;&#x43D;&#x442;&#x443;&#x440;_4993" data-name="&#x41A;&#x43E;&#x43D;&#x442;&#x443;&#x440; 4993" d="M73.735,113.881,51.441,79.165c-.831-.932-1.108-1.1-3.19-1.1H36.865l-2.917.013v58.332s.558-.021,2.917-.021H47c2.355,0,2.9.021,2.9.021v-32.46c0-3.919-.106-5.454-.106-6.564,0,0,21.991,35.218,24.167,37.7l.118,0c2.2-2.486,23.046-37.692,23.046-37.692,0,1.11-.118,2.647-.118,6.564v32.46s.558-.021,2.913-.021h10.13c2.368,0,2.921.021,2.921.021V78.079l-2.921-.013H98.681c-2.086,0-2.359.165-3.19,1.1L74.329,113.881h-.594" transform="translate(27.247 -76.157)" fill="#004685"></path><path id="&#x41A;&#x43E;&#x43D;&#x442;&#x443;&#x440;_4994" data-name="&#x41A;&#x43E;&#x43D;&#x442;&#x443;&#x440; 4994" d="M183.952,105.5c-11.555-5.532-27.3-6.033-27.3-12.5,0-5.112,5.12-6.644,11.162-6.644,9.449,0,17.588,3.744,18.374,3.744a1.932,1.932,0,0,0,1.446-.854l.888-1.152,4.7-5.987a0,0,0,0,1,0,0l-.133-.053c-.294-.14-1.106-.512-2.247-.962-.926-.359-1.5-.558-1.793-.649a76.222,76.222,0,0,0-21.765-3.283c-15.231,0-28.881,5.107-28.881,17.37,0,7.069,3.226,11.532,10.187,14.265,13.39,5.276,26.832,4.978,26.832,12.555,0,5.276-3.281,7.832-10.635,7.832-11.293,0-21.011-3.748-21.786-3.748a1.751,1.751,0,0,0-1.45.854l-1.44,2.676-2.516,4.665,2.057.776c4.184,1.655,15.123,3.972,25.659,3.972,16.546,0,28.665-5.418,28.354-17.964-.15-6.464-3.031-11.677-9.724-14.912" transform="translate(142.717 -77.163)" fill="#004685"></path><path id="&#x41A;&#x43E;&#x43D;&#x442;&#x443;&#x440;_4995" data-name="&#x41A;&#x43E;&#x43D;&#x442;&#x443;&#x440; 4995" d="M241.294,102.613v6.739h-1.089v-6.739h-2.549v-.634h6.2v.634Z" transform="translate(254.167 -49.519)" fill="#004685"></path><path id="&#x41A;&#x43E;&#x43D;&#x442;&#x443;&#x440;_4996" data-name="&#x41A;&#x43E;&#x43D;&#x442;&#x443;&#x440; 4996" d="M248.287,109.355V102.6l-2.619,6.758h-1l-2.653-6.7v6.7h-.869v-7.378h1.588l2.562,6.312,2.448-6.312h1.541v7.378Z" transform="translate(258.059 -49.521)" fill="#004685"></path></g><g id="&#x421;&#x433;&#x440;&#x443;&#x43F;&#x43F;&#x438;&#x440;&#x43E;&#x432;&#x430;&#x442;&#x44C;_11225" data-name="&#x421;&#x433;&#x440;&#x443;&#x43F;&#x43F;&#x438;&#x440;&#x43E;&#x432;&#x430;&#x442;&#x44C; 11225" transform="translate(240.941 5.533)"><g id="&#x421;&#x433;&#x440;&#x443;&#x43F;&#x43F;&#x438;&#x440;&#x43E;&#x432;&#x430;&#x442;&#x44C;_11224" data-name="&#x421;&#x433;&#x440;&#x443;&#x43F;&#x43F;&#x438;&#x440;&#x43E;&#x432;&#x430;&#x442;&#x44C; 11224" clip-path="url(#clip-path)"><path id="&#x41A;&#x43E;&#x43D;&#x442;&#x443;&#x440;_4997" data-name="&#x41A;&#x43E;&#x43D;&#x442;&#x443;&#x440; 4997" d="M144.646-5.736l67.619,39.5-40.753,69.775-67.623-39.5Z" transform="translate(-130.783 -18.086)" fill="url(#linear-gradient)"></path></g></g><g id="&#x421;&#x433;&#x440;&#x443;&#x43F;&#x43F;&#x438;&#x440;&#x43E;&#x432;&#x430;&#x442;&#x44C;_11227" data-name="&#x421;&#x433;&#x440;&#x443;&#x43F;&#x43F;&#x438;&#x440;&#x43E;&#x432;&#x430;&#x442;&#x44C; 11227" transform="translate(220.115 52.712)"><g id="&#x421;&#x433;&#x440;&#x443;&#x43F;&#x43F;&#x438;&#x440;&#x43E;&#x432;&#x430;&#x442;&#x44C;_11226" data-name="&#x421;&#x433;&#x440;&#x443;&#x43F;&#x43F;&#x438;&#x440;&#x43E;&#x432;&#x430;&#x442;&#x44C; 11226" clip-path="url(#clip-path-2)"><path id="&#x41A;&#x43E;&#x43D;&#x442;&#x443;&#x440;_4999" data-name="&#x41A;&#x43E;&#x43D;&#x442;&#x443;&#x440; 4999" d="M118.739,21.466l31.113,18.176-15.891,27.2L102.848,48.673Z" transform="translate(-111.117 -34.964)" fill="url(#linear-gradient-2)"></path></g></g><g id="&#x421;&#x433;&#x440;&#x443;&#x43F;&#x43F;&#x438;&#x440;&#x43E;&#x432;&#x430;&#x442;&#x44C;_11229" data-name="&#x421;&#x433;&#x440;&#x443;&#x43F;&#x43F;&#x438;&#x440;&#x43E;&#x432;&#x430;&#x442;&#x44C; 11229" transform="translate(220.166 40.464)"><g id="&#x421;&#x433;&#x440;&#x443;&#x43F;&#x43F;&#x438;&#x440;&#x43E;&#x432;&#x430;&#x442;&#x44C;_11228" data-name="&#x421;&#x433;&#x440;&#x443;&#x43F;&#x43F;&#x438;&#x440;&#x43E;&#x432;&#x430;&#x442;&#x44C; 11228" clip-path="url(#clip-path-3)"><path id="&#x41A;&#x43E;&#x43D;&#x442;&#x443;&#x440;_5001" data-name="&#x41A;&#x43E;&#x43D;&#x442;&#x443;&#x440; 5001" d="M134.754,6.59l72.8,42.528-35.935,61.518-72.8-42.528Z" transform="translate(-115.657 -39.286)" fill="url(#linear-gradient-3)"></path></g></g><g id="&#x421;&#x433;&#x440;&#x443;&#x43F;&#x43F;&#x438;&#x440;&#x43E;&#x432;&#x430;&#x442;&#x44C;_11231" data-name="&#x421;&#x433;&#x440;&#x443;&#x43F;&#x43F;&#x438;&#x440;&#x43E;&#x432;&#x430;&#x442;&#x44C; 11231" transform="translate(209.705 70.273)"><g id="&#x421;&#x433;&#x440;&#x443;&#x43F;&#x43F;&#x438;&#x440;&#x43E;&#x432;&#x430;&#x442;&#x44C;_11230" data-name="&#x421;&#x433;&#x440;&#x443;&#x43F;&#x43F;&#x438;&#x440;&#x43E;&#x432;&#x430;&#x442;&#x44C; 11230" clip-path="url(#clip-path-4)"><path id="&#x41A;&#x43E;&#x43D;&#x442;&#x443;&#x440;_5003" data-name="&#x41A;&#x43E;&#x43D;&#x442;&#x443;&#x440; 5003" d="M113.813,29.773l31.124,18.178L129.042,75.162,97.925,56.986Z" transform="translate(-106.191 -43.271)" fill="url(#linear-gradient-4)"></path></g></g><g id="&#x421;&#x433;&#x440;&#x443;&#x43F;&#x43F;&#x438;&#x440;&#x43E;&#x432;&#x430;&#x442;&#x44C;_11233" data-name="&#x421;&#x433;&#x440;&#x443;&#x43F;&#x43F;&#x438;&#x440;&#x43E;&#x432;&#x430;&#x442;&#x44C; 11233" transform="translate(199.297 87.835)"><g id="&#x421;&#x433;&#x440;&#x443;&#x43F;&#x43F;&#x438;&#x440;&#x43E;&#x432;&#x430;&#x442;&#x44C;_11232" data-name="&#x421;&#x433;&#x440;&#x443;&#x43F;&#x43F;&#x438;&#x440;&#x43E;&#x432;&#x430;&#x442;&#x44C; 11232" clip-path="url(#clip-path-5)"><path id="&#x41A;&#x43E;&#x43D;&#x442;&#x443;&#x440;_5005" data-name="&#x41A;&#x43E;&#x43D;&#x442;&#x443;&#x440; 5005" d="M124.685,33.19l67.331,39.33-40.442,69.24L84.243,102.428Z" transform="translate(-111.024 -57.027)" fill="url(#linear-gradient-5)"></path></g></g><g id="&#x421;&#x433;&#x440;&#x443;&#x43F;&#x43F;&#x438;&#x440;&#x43E;&#x432;&#x430;&#x442;&#x44C;_11235" data-name="&#x421;&#x433;&#x440;&#x443;&#x43F;&#x43F;&#x438;&#x440;&#x43E;&#x432;&#x430;&#x442;&#x44C; 11235" transform="translate(199.407 75.591)"><g id="&#x421;&#x433;&#x440;&#x443;&#x43F;&#x43F;&#x438;&#x440;&#x43E;&#x432;&#x430;&#x442;&#x44C;_11234" data-name="&#x421;&#x433;&#x440;&#x443;&#x43F;&#x43F;&#x438;&#x440;&#x43E;&#x432;&#x430;&#x442;&#x44C; 11234" clip-path="url(#clip-path-6)"><path id="&#x41A;&#x43E;&#x43D;&#x442;&#x443;&#x440;_5007" data-name="&#x41A;&#x43E;&#x43D;&#x442;&#x443;&#x440; 5007" d="M124.911,23.216l72.777,42.507-35.924,61.5L88.991,84.713Z" transform="translate(-105.845 -55.893)" fill="url(#linear-gradient-6)"></path></g></g><g id="&#x421;&#x433;&#x440;&#x443;&#x43F;&#x43F;&#x438;&#x440;&#x43E;&#x432;&#x430;&#x442;&#x44C;_11237" data-name="&#x421;&#x433;&#x440;&#x443;&#x43F;&#x43F;&#x438;&#x440;&#x43E;&#x432;&#x430;&#x442;&#x44C; 11237" transform="translate(254.129 65.743)"><g id="&#x421;&#x433;&#x440;&#x443;&#x43F;&#x43F;&#x438;&#x440;&#x43E;&#x432;&#x430;&#x442;&#x44C;_11236" data-name="&#x421;&#x433;&#x440;&#x443;&#x43F;&#x43F;&#x438;&#x440;&#x43E;&#x432;&#x430;&#x442;&#x44C; 11236" clip-path="url(#clip-path-7)"><path id="&#x41A;&#x43E;&#x43D;&#x442;&#x443;&#x440;_5009" data-name="&#x41A;&#x43E;&#x43D;&#x442;&#x443;&#x440; 5009" d="M135.105,27.619,166.523,45.97,150.358,73.65,118.938,55.3Z" transform="translate(-127.208 -41.14)" fill="url(#linear-gradient-7)"></path></g></g><g id="&#x421;&#x433;&#x440;&#x443;&#x43F;&#x43F;&#x438;&#x440;&#x43E;&#x432;&#x430;&#x442;&#x44C;_11239" data-name="&#x421;&#x433;&#x440;&#x443;&#x43F;&#x43F;&#x438;&#x440;&#x43E;&#x432;&#x430;&#x442;&#x44C; 11239" transform="translate(209.759 58.027)"><g id="&#x421;&#x433;&#x440;&#x443;&#x43F;&#x43F;&#x438;&#x440;&#x43E;&#x432;&#x430;&#x442;&#x44C;_11238" data-name="&#x421;&#x433;&#x440;&#x443;&#x43F;&#x43F;&#x438;&#x440;&#x43E;&#x432;&#x430;&#x442;&#x44C; 11238" clip-path="url(#clip-path-8)"><path id="&#x41A;&#x43E;&#x43D;&#x442;&#x443;&#x440;_5011" data-name="&#x41A;&#x43E;&#x43D;&#x442;&#x443;&#x440; 5011" d="M129.83,14.9l72.8,42.528L166.7,118.939,93.9,76.413Z" transform="translate(-110.732 -47.593)" fill="url(#linear-gradient-8)"></path></g></g><g id="&#x421;&#x433;&#x440;&#x443;&#x43F;&#x43F;&#x438;&#x440;&#x43E;&#x432;&#x430;&#x442;&#x44C;_11241" data-name="&#x421;&#x433;&#x440;&#x443;&#x43F;&#x43F;&#x438;&#x440;&#x43E;&#x432;&#x430;&#x442;&#x44C; 11241" transform="translate(233.309 100.868)"><g id="&#x421;&#x433;&#x440;&#x443;&#x43F;&#x43F;&#x438;&#x440;&#x43E;&#x432;&#x430;&#x442;&#x44C;_11240" data-name="&#x421;&#x433;&#x440;&#x443;&#x43F;&#x43F;&#x438;&#x440;&#x43E;&#x432;&#x430;&#x442;&#x44C; 11240" clip-path="url(#clip-path-9)"><path id="&#x41A;&#x43E;&#x43D;&#x442;&#x443;&#x440;_5013" data-name="&#x41A;&#x43E;&#x43D;&#x442;&#x443;&#x440; 5013" d="M127.794,44.281l36.18,21.135-21.038,36.011L106.76,80.3Z" transform="translate(-119.953 -57.705)" fill="url(#linear-gradient-9)"></path></g></g><g id="&#x421;&#x433;&#x440;&#x443;&#x43F;&#x43F;&#x438;&#x440;&#x43E;&#x432;&#x430;&#x442;&#x44C;_11243" data-name="&#x421;&#x433;&#x440;&#x443;&#x43F;&#x43F;&#x438;&#x440;&#x43E;&#x432;&#x430;&#x442;&#x44C; 11243" transform="translate(243.716 83.303)"><g id="&#x421;&#x433;&#x440;&#x443;&#x43F;&#x43F;&#x438;&#x440;&#x43E;&#x432;&#x430;&#x442;&#x44C;_11242" data-name="&#x421;&#x433;&#x440;&#x443;&#x43F;&#x43F;&#x438;&#x440;&#x43E;&#x432;&#x430;&#x442;&#x44C; 11242" clip-path="url(#clip-path-10)"><path id="&#x41A;&#x43E;&#x43D;&#x442;&#x443;&#x440;_5015" data-name="&#x41A;&#x43E;&#x43D;&#x442;&#x443;&#x440; 5015" d="M130.18,35.926,161.6,54.277,145.431,81.962,114.013,63.606Z" transform="translate(-122.281 -49.447)" fill="url(#linear-gradient-10)"></path></g></g><g id="&#x421;&#x433;&#x440;&#x443;&#x43F;&#x43F;&#x438;&#x440;&#x43E;&#x432;&#x430;&#x442;&#x44C;_11245" data-name="&#x421;&#x433;&#x440;&#x443;&#x43F;&#x43F;&#x438;&#x440;&#x43E;&#x432;&#x430;&#x442;&#x44C; 11245" transform="translate(230.531 23.091)"><g id="&#x421;&#x433;&#x440;&#x443;&#x43F;&#x43F;&#x438;&#x440;&#x43E;&#x432;&#x430;&#x442;&#x44C;_11244" data-name="&#x421;&#x433;&#x440;&#x443;&#x43F;&#x43F;&#x438;&#x440;&#x43E;&#x432;&#x430;&#x442;&#x44C; 11244" clip-path="url(#clip-path-11)"><path id="&#x41A;&#x43E;&#x43D;&#x442;&#x443;&#x440;_5017" data-name="&#x41A;&#x43E;&#x43D;&#x442;&#x443;&#x440; 5017" d="M126.477,7.5l36.206,21.15-21.089,36.1-36.2-21.144Z" transform="translate(-118.701 -20.903)" fill="url(#linear-gradient-11)"></path></g></g></g></svg>