<svg xmlns="http://www.w3.org/2000/svg" width="556.382" height="88.759" viewBox="0 0 556.382 88.759"><g id="logo-fmc-tagline-en" transform="translate(-0.225 -0.656)"><g id="&#x421;&#x433;&#x440;&#x443;&#x43F;&#x43F;&#x438;&#x440;&#x43E;&#x432;&#x430;&#x442;&#x44C;_11246" data-name="&#x421;&#x433;&#x440;&#x443;&#x43F;&#x43F;&#x438;&#x440;&#x43E;&#x432;&#x430;&#x442;&#x44C; 11246" transform="translate(0.225 0.656)"><path id="&#x41A;&#x43E;&#x43D;&#x442;&#x443;&#x440;_5024" data-name="&#x41A;&#x43E;&#x43D;&#x442;&#x443;&#x440; 5024" d="M180.621,87.069H148.271c-17.632,0-36.337-11.94-36.337-44.027,0-26.267,17.019-42.386,36.337-42.386h32.351V28.565H157.01c-4.293,0-14.106,1.642-14.106,14.924,0,13.432,9.966,15.372,14.106,15.372h23.611Z" transform="translate(116.821 -0.656)" fill="#ef3e33"></path><path id="&#x41A;&#x43E;&#x43D;&#x442;&#x443;&#x440;_5025" data-name="&#x41A;&#x43E;&#x43D;&#x442;&#x443;&#x440; 5025" d="M80.871,59.68c11.346,0,14.719-6.268,14.719-13.88s-3.373-13.88-14.719-13.88H64.926V24.459H100.65V.729H33.189V31.921H14.943C3.6,31.921.225,38.189.225,45.8s3.22,13.88,14.719,13.88H32.882V87.142H64.926V59.68Z" transform="translate(-0.225 -0.58)" fill="#ef3e33"></path><path id="&#x41A;&#x43E;&#x43D;&#x442;&#x443;&#x440;_5026" data-name="&#x41A;&#x43E;&#x43D;&#x442;&#x443;&#x440; 5026" d="M125.926,86.992l14.106-62.235V86.992h28.211V.729h-29.9c-17.939,0-19.625,8.805-22.078,19.4l-5.979,28.058-5.826-28.058c-2.453-10.6-4.14-19.4-22.078-19.4h-29.9V87.142H80.7V24.906L94.8,87.142h31.124Z" transform="translate(54.533 -0.58)" fill="#ef3e33"></path></g><path id="&#x41A;&#x43E;&#x43D;&#x442;&#x443;&#x440;_5027" data-name="&#x41A;&#x43E;&#x43D;&#x442;&#x443;&#x440; 5027" d="M159,1h2.048V89.054H159Z" transform="translate(166.361 0.361)" fill="#ef3e33"></path><g id="&#x421;&#x433;&#x440;&#x443;&#x43F;&#x43F;&#x438;&#x440;&#x43E;&#x432;&#x430;&#x442;&#x44C;_11247" data-name="&#x421;&#x433;&#x440;&#x443;&#x43F;&#x43F;&#x438;&#x440;&#x43E;&#x432;&#x430;&#x442;&#x44C; 11247" transform="translate(342.358 21.985)"><path id="&#x41A;&#x43E;&#x43D;&#x442;&#x443;&#x440;_5028" data-name="&#x41A;&#x43E;&#x43D;&#x442;&#x443;&#x440; 5028" d="M12.74,12.949H4.447L3.064,16.334H.3L7.058.144h3.225l6.758,16.19H14.276ZM5.215,10.741h6.758L8.593,2.2Z" transform="translate(-0.3 0.003)" fill="#4d4d4f"></path><path id="&#x41A;&#x43E;&#x43D;&#x442;&#x443;&#x440;_5029" data-name="&#x41A;&#x43E;&#x43D;&#x442;&#x443;&#x440; 5029" d="M17.668,6.572c0-1.913-1.075-2.5-2.611-2.5a4.459,4.459,0,0,0-3.379,1.766v8.389h-2.3V2.451h2.3V4.07a6.116,6.116,0,0,1,4.3-1.913c2.611,0,3.993,1.325,3.993,3.827v8.242h-2.3Z" transform="translate(9.209 2.112)" fill="#4d4d4f"></path><path id="&#x41A;&#x43E;&#x43D;&#x442;&#x443;&#x440;_5030" data-name="&#x41A;&#x43E;&#x43D;&#x442;&#x443;&#x440; 5030" d="M31.115,12.949H22.822l-1.382,3.385H18.675L25.433.144h3.225l6.758,16.19H32.651Zm-7.679-2.208h6.758L26.815,2.2Z" transform="translate(18.953 0.003)" fill="#4d4d4f"></path><path id="&#x41A;&#x43E;&#x43D;&#x442;&#x443;&#x440;_5031" data-name="&#x41A;&#x43E;&#x43D;&#x442;&#x443;&#x440; 5031" d="M28.986,15.475a4.927,4.927,0,0,0,3.993,1.619c1.843,0,3.84-.883,3.84-3.385V12.237A5.072,5.072,0,0,1,32.825,14.3c-3.225,0-5.375-2.208-5.375-6.035s2.3-6.035,5.375-6.035a4.887,4.887,0,0,1,3.993,2.061V2.522h2.3V13.856c0,3.974-3.072,5.151-6.143,5.151a7.109,7.109,0,0,1-5.068-1.766Zm7.679-9.714a4.459,4.459,0,0,0-3.379-1.766c-2.3,0-3.686,1.766-3.686,4.121s1.382,4.121,3.686,4.121a4.051,4.051,0,0,0,3.379-1.766Z" transform="translate(28.147 2.187)" fill="#4d4d4f"></path><path id="&#x41A;&#x43E;&#x43D;&#x442;&#x443;&#x440;_5032" data-name="&#x41A;&#x43E;&#x43D;&#x442;&#x443;&#x440; 5032" d="M34.875,2.451h2.3V4.217a5.317,5.317,0,0,1,3.993-2.061V4.364H40.4A4.713,4.713,0,0,0,37.179,6.13v8.1h-2.3Z" transform="translate(35.927 2.112)" fill="#4d4d4f"></path><path id="&#x41A;&#x43E;&#x43D;&#x442;&#x443;&#x440;_5033" data-name="&#x41A;&#x43E;&#x43D;&#x442;&#x443;&#x440; 5033" d="M38.85,1.4A1.4,1.4,0,0,1,40.386.072,1.492,1.492,0,0,1,41.922,1.4a1.507,1.507,0,0,1-1.536,1.472C39.618,2.721,38.85,2.132,38.85,1.4Zm.307,3.238h2.3V16.409h-2.3Z" transform="translate(40.092 -0.072)" fill="#4d4d4f"></path><path id="&#x41A;&#x43E;&#x43D;&#x442;&#x443;&#x440;_5034" data-name="&#x41A;&#x43E;&#x43D;&#x442;&#x443;&#x440; 5034" d="M47.847,2.156a5.426,5.426,0,0,1,4.608,2.061L50.919,5.541A3.369,3.369,0,0,0,48,4.07c-2.457,0-3.993,1.766-3.993,4.268S45.543,12.606,48,12.606a3.2,3.2,0,0,0,2.918-1.472l1.536,1.325a5.426,5.426,0,0,1-4.608,2.061,6.042,6.042,0,0,1-6.3-6.182,5.956,5.956,0,0,1,6.3-6.182Z" transform="translate(42.921 2.112)" fill="#4d4d4f"></path><path id="&#x41A;&#x43E;&#x43D;&#x442;&#x443;&#x440;_5035" data-name="&#x41A;&#x43E;&#x43D;&#x442;&#x443;&#x440; 5035" d="M56.29,12.38a5.835,5.835,0,0,1-4.3,1.913c-2.611,0-3.84-1.325-3.84-3.68V2.372h2.3V9.878c0,1.913,1.075,2.5,2.611,2.5a4.344,4.344,0,0,0,3.379-1.619V2.372h2.3V14.147h-2.3V12.38Z" transform="translate(49.836 2.338)" fill="#4d4d4f"></path><path id="&#x41A;&#x43E;&#x43D;&#x442;&#x443;&#x440;_5036" data-name="&#x41A;&#x43E;&#x43D;&#x442;&#x443;&#x440; 5036" d="M54.975.072h2.3v16.19h-2.3Z" transform="translate(56.987 -0.072)" fill="#4d4d4f"></path><path id="&#x41A;&#x43E;&#x43D;&#x442;&#x443;&#x440;_5037" data-name="&#x41A;&#x43E;&#x43D;&#x442;&#x443;&#x440; 5037" d="M59.072,13.082V5.87h-2V3.957h2V.719h2.3V3.957h2.457V5.87H61.375v6.77c0,.883.461,1.472,1.229,1.472.461,0,1.075-.147,1.229-.442l.614,1.619a3.43,3.43,0,0,1-2.457.736,2.8,2.8,0,0,1-2.918-2.944Z" transform="translate(59.188 0.606)" fill="#4d4d4f"></path><path id="&#x41A;&#x43E;&#x43D;&#x442;&#x443;&#x440;_5038" data-name="&#x41A;&#x43E;&#x43D;&#x442;&#x443;&#x440; 5038" d="M69.865,12.38a5.835,5.835,0,0,1-4.3,1.913c-2.611,0-3.84-1.325-3.84-3.68V2.372h2.3V9.878c0,1.913,1.075,2.5,2.611,2.5a4.344,4.344,0,0,0,3.379-1.619V2.372h2.3V14.147h-2.3V12.38Z" transform="translate(64.06 2.338)" fill="#4d4d4f"></path><path id="&#x41A;&#x43E;&#x43D;&#x442;&#x443;&#x440;_5039" data-name="&#x41A;&#x43E;&#x43D;&#x442;&#x443;&#x440; 5039" d="M68.55,2.451h2.3V4.217a5.317,5.317,0,0,1,3.993-2.061V4.364h-.768A4.713,4.713,0,0,0,70.854,6.13v8.1h-2.3Z" transform="translate(71.211 2.112)" fill="#4d4d4f"></path><path id="&#x41A;&#x43E;&#x43D;&#x442;&#x443;&#x440;_5040" data-name="&#x41A;&#x43E;&#x43D;&#x442;&#x443;&#x440; 5040" d="M80.669,12.75a5.2,5.2,0,0,1-3.993,1.619c-2,0-4.3-1.325-4.3-3.827,0-2.649,2.15-3.827,4.3-3.827a4.736,4.736,0,0,1,3.993,1.619V6.421c0-1.472-1.229-2.355-2.918-2.355a4.716,4.716,0,0,0-3.686,1.619l-.922-1.472A6.989,6.989,0,0,1,78.211,2.3c2.611,0,4.915,1.177,4.915,4.121v7.948h-2.3V12.75Zm0-3.385A3.729,3.729,0,0,0,77.6,8.04c-1.689,0-2.764.883-2.764,2.355A2.563,2.563,0,0,0,77.6,12.75a3.729,3.729,0,0,0,3.072-1.325Z" transform="translate(75.219 2.263)" fill="#4d4d4f"></path><path id="&#x41A;&#x43E;&#x43D;&#x442;&#x443;&#x440;_5041" data-name="&#x41A;&#x43E;&#x43D;&#x442;&#x443;&#x440; 5041" d="M79.35.072h2.3v16.19h-2.3Z" transform="translate(82.527 -0.072)" fill="#4d4d4f"></path><path id="&#x41A;&#x43E;&#x43D;&#x442;&#x443;&#x440;_5042" data-name="&#x41A;&#x43E;&#x43D;&#x442;&#x443;&#x440; 5042" d="M2.136,24.719a7.269,7.269,0,0,0,5.375,2.355c2.764,0,3.686-1.325,3.686-2.5,0-1.766-2-2.208-4.147-2.649-2.764-.736-5.836-1.472-5.836-4.71,0-2.649,2.457-4.563,5.99-4.563a8.425,8.425,0,0,1,6.143,2.208l-1.536,1.766A6.635,6.635,0,0,0,6.9,14.711c-1.843,0-3.225.883-3.225,2.355s1.843,1.913,3.993,2.355c2.765.736,5.99,1.472,5.99,5,0,2.5-1.843,4.857-6.45,4.857a8.691,8.691,0,0,1-6.6-2.5Z" transform="translate(0.014 13.107)" fill="#4d4d4f"></path><path id="&#x41A;&#x43E;&#x43D;&#x442;&#x443;&#x440;_5043" data-name="&#x41A;&#x43E;&#x43D;&#x442;&#x443;&#x440; 5043" d="M14.322,14.734a5.426,5.426,0,0,1,4.607,2.061L17.394,18.12a3.369,3.369,0,0,0-2.918-1.472c-2.457,0-3.993,1.766-3.993,4.268s1.536,4.268,3.993,4.268a3.2,3.2,0,0,0,2.918-1.472l1.536,1.325A5.426,5.426,0,0,1,14.322,27.1a6.042,6.042,0,0,1-6.3-6.182,6.042,6.042,0,0,1,6.3-6.182Z" transform="translate(7.794 15.291)" fill="#4d4d4f"></path><path id="&#x41A;&#x43E;&#x43D;&#x442;&#x443;&#x440;_5044" data-name="&#x41A;&#x43E;&#x43D;&#x442;&#x443;&#x440; 5044" d="M14.4,13.975a1.4,1.4,0,0,1,1.536-1.325,1.492,1.492,0,0,1,1.536,1.325,1.507,1.507,0,0,1-1.536,1.472A1.61,1.61,0,0,1,14.4,13.975Zm.307,3.238h2.3V28.987h-2.3Z" transform="translate(14.474 13.107)" fill="#4d4d4f"></path><path id="&#x41A;&#x43E;&#x43D;&#x442;&#x443;&#x440;_5045" data-name="&#x41A;&#x43E;&#x43D;&#x442;&#x443;&#x440; 5045" d="M23.168,14.734c3.686,0,5.99,2.8,5.99,6.329v.589H19.482a3.907,3.907,0,0,0,4.147,3.68,5.645,5.645,0,0,0,3.686-1.325l1.075,1.472a6.89,6.89,0,0,1-4.915,1.766,5.96,5.96,0,0,1-6.3-6.182,5.757,5.757,0,0,1,5.99-6.329Zm-3.84,5.3h7.526A3.453,3.453,0,0,0,23.168,16.5,3.8,3.8,0,0,0,19.329,20.033Z" transform="translate(17.378 15.291)" fill="#4d4d4f"></path><path id="&#x41A;&#x43E;&#x43D;&#x442;&#x443;&#x440;_5046" data-name="&#x41A;&#x43E;&#x43D;&#x442;&#x443;&#x440; 5046" d="M32.668,19.15c0-1.913-1.075-2.5-2.611-2.5a4.459,4.459,0,0,0-3.379,1.766V26.8h-2.3V15.029h2.3v1.619a6.116,6.116,0,0,1,4.3-1.913c2.611,0,3.993,1.325,3.993,3.827V26.8h-2.3Z" transform="translate(24.925 15.291)" fill="#4d4d4f"></path><path id="&#x41A;&#x43E;&#x43D;&#x442;&#x443;&#x440;_5047" data-name="&#x41A;&#x43E;&#x43D;&#x442;&#x443;&#x440; 5047" d="M37.2,14.734A5.426,5.426,0,0,1,41.8,16.795L40.269,18.12a3.369,3.369,0,0,0-2.918-1.472c-2.457,0-3.993,1.766-3.993,4.268s1.536,4.268,3.993,4.268a3.2,3.2,0,0,0,2.918-1.472L41.8,25.037A5.426,5.426,0,0,1,37.2,27.1a6.042,6.042,0,0,1-6.3-6.182,6.042,6.042,0,0,1,6.3-6.182Z" transform="translate(31.762 15.291)" fill="#4d4d4f"></path><path id="&#x41A;&#x43E;&#x43D;&#x442;&#x443;&#x440;_5048" data-name="&#x41A;&#x43E;&#x43D;&#x442;&#x443;&#x440; 5048" d="M43.118,14.734c3.686,0,5.99,2.8,5.99,6.329v.589H39.432a3.907,3.907,0,0,0,4.147,3.68,5.645,5.645,0,0,0,3.686-1.325l1.075,1.472a6.89,6.89,0,0,1-4.915,1.766,5.96,5.96,0,0,1-6.3-6.182,5.837,5.837,0,0,1,5.99-6.329Zm-3.686,5.3h7.526A3.453,3.453,0,0,0,43.272,16.5,3.591,3.591,0,0,0,39.432,20.033Z" transform="translate(38.281 15.291)" fill="#4d4d4f"></path><path id="&#x41A;&#x43E;&#x43D;&#x442;&#x443;&#x440;_5049" data-name="&#x41A;&#x43E;&#x43D;&#x442;&#x443;&#x440; 5049" d="M45.029,23.641a5.879,5.879,0,0,0,4.147,1.619c1.689,0,2.611-.736,2.611-1.619,0-1.177-1.382-1.619-2.918-1.913-2.15-.442-4.454-1.03-4.454-3.532,0-1.913,1.689-3.532,4.607-3.532a6.536,6.536,0,0,1,4.608,1.619l-1.075,1.472a4.936,4.936,0,0,0-3.686-1.472c-1.536,0-2.457.589-2.457,1.472,0,1.03,1.382,1.325,2.764,1.766,2.15.442,4.607,1.03,4.607,3.68,0,2.061-1.689,3.532-4.915,3.532A7.278,7.278,0,0,1,43.8,24.965Z" transform="translate(45.278 15.216)" fill="#4d4d4f"></path><path id="&#x41A;&#x43E;&#x43D;&#x442;&#x443;&#x440;_5050" data-name="&#x41A;&#x43E;&#x43D;&#x442;&#x443;&#x440; 5050" d="M53.025,20.968a8.262,8.262,0,0,1,8.6-8.389,7.744,7.744,0,0,1,6.758,3.385l-2.15,1.03a5.648,5.648,0,0,0-4.608-2.355,5.885,5.885,0,0,0-5.99,6.182A5.885,5.885,0,0,0,61.626,27a5.648,5.648,0,0,0,4.608-2.355l2.15,1.03a7.744,7.744,0,0,1-6.758,3.385,8.027,8.027,0,0,1-8.6-8.1Z" transform="translate(54.944 13.032)" fill="#4d4d4f"></path><path id="&#x41A;&#x43E;&#x43D;&#x442;&#x443;&#x440;_5051" data-name="&#x41A;&#x43E;&#x43D;&#x442;&#x443;&#x440; 5051" d="M61.35,20.916a6,6,0,0,1,6.143-6.182,5.911,5.911,0,0,1,6.143,6.182A5.911,5.911,0,0,1,67.493,27.1,6.086,6.086,0,0,1,61.35,20.916Zm9.983,0c0-2.208-1.382-4.268-3.84-4.268s-3.84,2.061-3.84,4.268,1.382,4.268,3.84,4.268A3.931,3.931,0,0,0,71.333,20.916Z" transform="translate(63.667 15.291)" fill="#4d4d4f"></path><path id="&#x41A;&#x43E;&#x43D;&#x442;&#x443;&#x440;_5052" data-name="&#x41A;&#x43E;&#x43D;&#x442;&#x443;&#x440; 5052" d="M83.673,18.856a1.943,1.943,0,0,0-2.15-2.208,4.455,4.455,0,0,0-3.072,1.619v8.389h-2.3v-7.8A1.943,1.943,0,0,0,74,16.648a3.574,3.574,0,0,0-2.918,1.766V26.8h-2.3V15.029h2.3v1.619a5.3,5.3,0,0,1,3.993-1.913,3.247,3.247,0,0,1,3.379,2.208A5.44,5.44,0,0,1,82.6,14.734c2.3,0,3.532,1.177,3.532,3.532V26.8h-2.3V18.856Z" transform="translate(71.447 15.291)" fill="#4d4d4f"></path><path id="&#x41A;&#x43E;&#x43D;&#x442;&#x443;&#x440;_5053" data-name="&#x41A;&#x43E;&#x43D;&#x442;&#x443;&#x440; 5053" d="M78.975,31.219V15.029h2.3v1.619a4.947,4.947,0,0,1,3.993-1.913c3.225,0,5.375,2.355,5.375,6.182s-2.3,6.182-5.375,6.182a4.886,4.886,0,0,1-3.993-2.061v6.182Zm5.683-14.571a4.051,4.051,0,0,0-3.379,1.766v5a4.459,4.459,0,0,0,3.379,1.766c2.3,0,3.686-1.766,3.686-4.268s-1.382-4.268-3.686-4.268Z" transform="translate(82.134 15.291)" fill="#4d4d4f"></path><path id="&#x41A;&#x43E;&#x43D;&#x442;&#x443;&#x440;_5054" data-name="&#x41A;&#x43E;&#x43D;&#x442;&#x443;&#x440; 5054" d="M94.018,25.328a5.2,5.2,0,0,1-3.993,1.619c-2,0-4.3-1.325-4.3-3.827,0-2.649,2.15-3.827,4.3-3.827a4.735,4.735,0,0,1,3.993,1.619V19c0-1.472-1.229-2.355-2.918-2.355a4.716,4.716,0,0,0-3.686,1.619l-.921-1.472a6.989,6.989,0,0,1,5.068-1.913c2.611,0,4.915,1.177,4.915,4.121v7.948h-2.3V25.328Zm0-3.385a3.729,3.729,0,0,0-3.072-1.325c-1.689,0-2.764.883-2.764,2.355a2.563,2.563,0,0,0,2.764,2.355A3.729,3.729,0,0,0,94.018,24Z" transform="translate(89.206 15.442)" fill="#4d4d4f"></path><path id="&#x41A;&#x43E;&#x43D;&#x442;&#x443;&#x440;_5055" data-name="&#x41A;&#x43E;&#x43D;&#x442;&#x443;&#x440; 5055" d="M100.993,19.15c0-1.913-1.075-2.5-2.611-2.5A4.459,4.459,0,0,0,95,18.414V26.8H92.7V15.029H95v1.619a6.116,6.116,0,0,1,4.3-1.913c2.611,0,3.993,1.325,3.993,3.827V26.8h-2.3Z" transform="translate(96.515 15.291)" fill="#4d4d4f"></path><path id="&#x41A;&#x43E;&#x43D;&#x442;&#x443;&#x440;_5056" data-name="&#x41A;&#x43E;&#x43D;&#x442;&#x443;&#x440; 5056" d="M101.232,29.449a1.915,1.915,0,0,0,1.843-1.177l.768-1.619L98.775,14.878h2.457l3.84,9.273,3.84-9.273h2.457l-5.99,13.982a3.714,3.714,0,0,1-3.84,2.5,4.428,4.428,0,0,1-1.382-.147l.307-1.913a3.242,3.242,0,0,0,.768.147Z" transform="translate(102.88 15.442)" fill="#4d4d4f"></path></g></g></svg>