<svg xmlns="http://www.w3.org/2000/svg" width="545.171" height="571.671" viewBox="0 0 545.171 571.671"><g id="Logo" transform="translate(-415.512 -110.082)" opacity="0.04"><path id="&#x41A;&#x43E;&#x43D;&#x442;&#x443;&#x440;_4322" data-name="&#x41A;&#x43E;&#x43D;&#x442;&#x443;&#x440; 4322" d="M4175.185,121.934c111.762,16.325,202.039,103.645,231.11,204.529h38.633l21.544,45.284H4414.96c.8,8.172,1.232,16.448,1.232,24.817,0,6.3-.248,12.536-.708,18.723h29.444l21.544,45.281h-58.5c-21.52,82.38-83.641,149.773-165.3,182.441v31.136a7.62,7.62,0,0,1-7.605,7.608h-47.372a7.623,7.623,0,0,1-7.609-7.608V660.375q-8.995,1.465-18.18,2.394l-3.392,13.26a7.528,7.528,0,0,1-7.372,5.724h-42.921a7.527,7.527,0,0,1-7.372-5.728l-3.454-13.528q-9.1-1.005-18.032-2.543v14.191a7.624,7.624,0,0,1-7.612,7.608h-47.366a7.622,7.622,0,0,1-7.608-7.608V641.978a288.882,288.882,0,0,1-68.647-39.955l.354-60.513a238.3,238.3,0,0,0,68.293,49.669V486.753a7.622,7.622,0,0,1,7.608-7.608h76.379a7.529,7.529,0,0,1,7.372,5.728l21.731,85.172,21.8-85.179a7.534,7.534,0,0,1,7.372-5.721h76.029a7.62,7.62,0,0,1,7.605,7.608v100.87c52.144-27.44,92.2-72.726,110.758-127.055H4015.4l-21.544-45.281H4363.54a213.775,213.775,0,0,0,1.275-23.251c0-6.84-.346-13.606-.987-20.29h-389.36l-21.544-45.284h401.5c-23.53-72.3-84.952-129.054-162.528-149.869l47.151,125.816a7.607,7.607,0,0,1-7.124,10.279h-60.631a7.511,7.511,0,0,1-7.28-5.4l-7.741-25.485h-54.325l-7.779,25.494a7.509,7.509,0,0,1-7.279,5.39h-59.1a7.61,7.61,0,0,1-7.123-10.29l48.134-127.88c-49.312,11.445-92.58,37.287-124.459,72.511l-23.037-31.92c42.2-42.974,99.188-72.948,163.383-82.794l6.516-17.305a7.483,7.483,0,0,1,7.118-4.928h63.376a7.486,7.486,0,0,1,7.127,4.939Zm12.506,486.648Zm-159.905-303.5h0Zm121.87-71.447-19.931-65.619-.526-1.731-20.546,67.35Zm30.427,376.726V581.79l-10.148,33.476C4171.617,614.938,4178.412,610.72,4180.082,610.359Zm-88.615,4.907-12.108-33.476v29.991C4081.127,612.11,4089.684,614.973,4091.467,615.266Z" transform="translate(-3505.788 0)" fill-rule="evenodd"></path></g></svg>