<svg xmlns="http://www.w3.org/2000/svg" width="605" height="1076" viewBox="0 0 605 1076"><g id="_1231231" data-name="1231231" transform="translate(-9838 -8386)"><rect id="structure-technology-skyline-night-steam-building-848593-pxhere.com" width="605" height="1076" transform="translate(9838 8386)" fill="#fff"></rect><g id="&#x421;&#x433;&#x440;&#x443;&#x43F;&#x43F;&#x438;&#x440;&#x43E;&#x432;&#x430;&#x442;&#x44C;_11381" data-name="&#x421;&#x433;&#x440;&#x443;&#x43F;&#x43F;&#x438;&#x440;&#x43E;&#x432;&#x430;&#x442;&#x44C; 11381" transform="translate(9924.999 8459.272)"><path id="&#x41A;&#x43E;&#x43D;&#x442;&#x443;&#x440;_5094" data-name="&#x41A;&#x43E;&#x43D;&#x442;&#x443;&#x440; 5094" d="M4122.357,127.444c88.507,12.928,160,74.1,183.021,154h30.594l17.064,35.861h-40.795c.635,6.472.972,13.026.972,19.653q0,7.478-.559,14.827h23.318l17.064,35.859H4306.7c-17.04,65.239-66.234,118.609-130.9,144.479v24.657a6.036,6.036,0,0,1-6.027,6.025h-37.512a6.038,6.038,0,0,1-6.025-6.025V545.87q-7.124,1.16-14.4,1.9l-2.688,10.5a5.958,5.958,0,0,1-5.834,4.533h-33.991a5.966,5.966,0,0,1-5.839-4.536l-2.734-10.713q-7.206-.8-14.282-2.014v11.239a6.036,6.036,0,0,1-6.025,6.025h-37.512a6.036,6.036,0,0,1-6.024-6.025V531.3a228.753,228.753,0,0,1-54.363-31.641l.281-47.921a188.688,188.688,0,0,0,54.082,39.334v-82.7a6.036,6.036,0,0,1,6.024-6.025h60.487a5.967,5.967,0,0,1,5.839,4.536l17.21,67.449,17.261-67.455a5.964,5.964,0,0,1,5.838-4.531h60.208a6.036,6.036,0,0,1,6.027,6.025v79.881c41.291-21.73,73.007-57.593,87.709-100.617H3995.817l-17.062-35.859H4271.52a169.137,169.137,0,0,0,1.009-18.413c0-5.416-.273-10.775-.782-16.068H3963.4l-17.062-35.861H4264.3c-18.634-57.256-67.273-102.2-128.706-118.685l37.339,99.636a6.025,6.025,0,0,1-5.642,8.14h-48.016a5.948,5.948,0,0,1-5.764-4.276l-6.132-20.182h-43.022l-6.161,20.189a5.947,5.947,0,0,1-5.761,4.268h-46.806a6.025,6.025,0,0,1-5.639-8.149l38.121-101.271a191.072,191.072,0,0,0-98.565,57.423L3921.3,193.255c33.419-34.032,78.549-57.769,129.385-65.566l5.161-13.7a5.923,5.923,0,0,1,5.636-3.9h50.194a5.931,5.931,0,0,1,5.641,3.911l5.042,13.451Zm47.417,406.992V408.377h-60.208l-23.11,90.3-23.038-90.3h-60.487v148.4h37.512V443.647l21.8,85.4,4.883,19.117,2.2,8.607h33.991l5.235-20.468,7.182-28.069,16.529-64.592V556.776h37.512V534.435Zm-50.051-396.851-4.136-11.039-3.914-10.438h-50.19l-55.855,148.4h46.806l7.46-24.456h51.953l7.427,24.456h48.016Zm-17.583,70.34-15.786-51.965-.414-1.371-16.272,53.336Zm24.1,298.337V491.5l-3.987,15.577Q4124.251,506.691,4126.236,506.262Zm-75.551,1.865-4.217-16.513v15.775Q4048.571,507.779,4050.686,508.127ZM4094.01,201.9l-8.084-26.618-8.12,26.618Z" transform="translate(-3921.3 -110.082)" fill="#194687" fill-rule="evenodd"></path></g></g></svg>