<svg xmlns="http://www.w3.org/2000/svg" width="835" height="418" viewBox="0 0 835 418"><g id="logo_x2F_GPN_x2B_Slogan-ru" transform="translate(0 -0.375)" opacity="0.19"><g id="Mask"><rect id="path-1_00000016792609903235774190000017699103062077983674_" width="835" height="418" transform="translate(0 0.375)" fill="rgba(255,255,255,0.01)"></rect></g><g id="Group-47" transform="translate(0 1.522)"><g id="&#x421;&#x433;&#x440;&#x443;&#x43F;&#x43F;&#x438;&#x440;&#x43E;&#x432;&#x430;&#x442;&#x44C;_9896" data-name="&#x421;&#x433;&#x440;&#x443;&#x43F;&#x43F;&#x438;&#x440;&#x43E;&#x432;&#x430;&#x442;&#x44C; 9896"><g id="Group-41"><path id="Fill-39" d="M564.6,335c3.044,0,4.565.761,4.565,4.565v19.023c0,3.8-.761,4.565-4.565,4.565h-2.283V335H564.6Zm225.232,19.023c3.044,0,3.8.761,3.8,4.565V366.2c0,3.044-.761,4.566-3.8,4.566h-3.044V354.787h3.044ZM541.774,339.569c0-3.8,1.522-4.565,4.566-4.565h2.283v28.154h-2.283c-3.044,0-4.566-.761-4.566-4.565V339.569ZM277.735,397.4h555.47V305.328H277.735Zm60.113-77.614H323.39v23.588h-7.609V319.785h-13.7V379.9h13.7V353.266h7.609V379.9h14.457Zm116.42,0h-33.48V379.9h33.48V368.484H435.245V354.026h17.5V342.613h-17.5V330.438h19.023ZM582.1,340.33c0-12.175-6.087-15.218-19.784-15.218v-4.565h-13.7v4.565c-14.458,0-20.545,3.044-20.545,15.218v19.023c0,12.175,6.087,15.218,20.545,15.218v6.087h13.7v-6.087c13.7,0,19.784-3.044,19.784-15.218Zm108.05-20.545H654.39V331.2H665.8v48.7h13.7V331.2h10.653V319.785Zm117.942,38.807c0-12.175-5.326-15.218-19.023-15.218h-2.283V319.785H772.332V379.9h14.457c15.218,0,21.306-2.283,21.306-15.218ZM240.45,258.912v95.115c-25.11,26.632-61.634,44.133-101.2,44.133C62.4,397.4,0,335.764,0,258.912,0,182.82,62.4,120.425,139.248,120.425V224.671A78.971,78.971,0,0,0,83.7,247.5a132.274,132.274,0,0,0-9.892,11.414c-20.545,30.437-17.5,71.526,9.892,98.158a78.071,78.071,0,0,0,110.333,0h0a38.578,38.578,0,0,0,0-54.786,39.5,39.5,0,0,0-55.547,0h0V258.912H240.45Zm-17.5-187.186c8.37,36.524,8.37,59.352,4.566,85.223-6.848,46.416-27.393,82.179-36.524,94.354-6.087-8.37-15.979-24.349-22.067-40.329,0,0-12.175-29.676-15.218-57.83A234.841,234.841,0,0,1,161.315,62.6c8.37-29.676,25.11-55.547,29.676-62.4,2.283,4.566,23.588,34.241,31.959,71.526ZM190.99,242.172c4.566-7.609,11.414-25.11,10.653-47.177-.761-22.827-8.37-39.568-10.653-43.372-2.283,3.8-11.414,22.828-11.414,44.894.761,22.828,6.848,37.285,11.414,45.655Zm29.676-108.05c0-13.7-.761-38.046-7.609-63.156s-20.545-48.7-22.067-51.742c-2.283,3.044-12.175,22.067-22.067,52.5-2.283,9.131-6.848,28.915-7.609,47.938-.761,22.828,2.283,46.416,3.8,52.5,0-7.609,0-33.48,4.566-54.025,4.566-21.306,13.7-45.655,21.306-57.83,7.609,12.936,18.262,41.09,21.306,57.83,3.8,16.74,5.326,38.046,4.566,54.025,1.522-9.131,3.8-24.349,3.8-38.046ZM798.2,119.664h35V258.151H806.573V171.406h-.761l-14.457,87.505H770.049l-13.7-86.745h-.761v86.745H728.96V119.664h35l17.5,97.4Zm-190.99,76.853c3.044,0,5.326-2.283,5.326-6.848V144.774c0-4.566-2.283-6.848-5.326-6.848h-6.848v58.591Zm-33.48-76.853h41.85c19.023,0,21.306,15.218,21.306,25.11v41.85c0,9.892-3.044,25.11-21.306,25.11H600.364v47.177H573.732Zm-80.657,0h61.634V258.151H529.6V136.4H517.424V258.151h-25.11V119.664Zm-52.5,90.549v25.871c0,3.8,2.283,4.565,3.8,4.565,2.283,0,3.8-2.283,3.8-4.565V204.126c0-4.566-.761-9.131-10.653-9.131H426.875V179.776h11.414c7.609,0,10.653-1.522,10.653-10.653V141.731c0-2.283-1.522-4.565-3.8-4.565-1.522,0-3.8.761-3.8,4.565v22.828H414.7V144.774c0-9.892,1.522-25.11,19.784-25.11h22.067c19.023,0,19.784,15.218,19.784,25.11v22.067c0,15.218-9.892,19.023-18.262,19.023v1.522c18.262-.761,18.262,13.7,18.262,19.023v28.154c0,9.892-1.522,25.11-19.784,25.11H433.723c-18.262,0-19.784-15.218-19.784-25.11V210.974h26.632Zm-67.722-3.8-4.565-69.243h-1.522L362.2,206.409Zm-26.632-86.745h41.85l13.7,138.487H375.893l-2.283-36.524H360.675l-2.283,36.524H332.521Zm-68.483,0h50.982v17.5H304.367V258.912H277.735Zm415.461,0c19.023,0,19.784,15.218,19.784,25.11V233.8c0,9.892-1.522,25.11-19.784,25.11H671.13c-19.023,0-19.784-15.218-19.784-25.11V144.774c0-9.892.761-25.11,19.784-25.11H693.2ZM681.783,241.411c3.044,0,6.087-2.283,6.087-5.326h0V141.731c0-3.044-3.044-4.565-6.087-4.565a6.628,6.628,0,0,0-6.087,4.565v94.354h0c.761,3.044,3.044,5.326,6.087,5.326Z" transform="translate(0 -0.2)" fill="#bbb" fill-rule="evenodd"></path></g></g></g></g></svg>